<svg width="120" height="40" viewBox="0 0 120 40" fill="none" xmlns="http://www.w3.org/2000/svg">
<path d="M72.5424 5.14089C72.5424 4.82341 72.4292 4.54915 72.2043 4.31811C71.9795 4.08707 71.7146 3.96406 71.4098 3.95077H67.6339V15.8287C67.6472 16.1728 67.7755 16.4637 68.022 16.7014C68.2668 16.939 68.5616 17.0587 68.9064 17.0587H69.1646V17.2565H64.8124V17.0587H65.0705C65.4153 17.0587 65.7101 16.939 65.955 16.7014C66.1998 16.4637 66.3297 16.1794 66.3431 15.8487V3.95243H62.5671C62.249 3.96573 61.9809 4.08873 61.7627 4.31977C61.5445 4.55081 61.4345 4.82507 61.4345 5.14255V5.47997L61.2363 5.49992V3C61.4345 3.07978 61.7793 3.15791 62.269 3.23769C62.7587 3.31748 63.2101 3.35737 63.6198 3.35737H70.3355C70.9851 3.35737 71.5247 3.3075 71.9545 3.20777C72.3842 3.10804 72.6474 3.03989 72.739 3V5.49826L72.5408 5.47831V5.14089H72.5424Z" fill="white"/>
<path d="M64.0897 5.10787L61.5263 14.0454L57.6105 3.08L57.4323 3.06006L53.7363 14.441L50.7166 4.78374C50.6766 4.65243 50.6566 4.50616 50.6566 4.34825C50.6566 4.19034 50.7266 4.0208 50.8648 3.84295C51.0031 3.66509 51.2129 3.57533 51.4911 3.57533H51.6693V3.37754H47.2588V3.57533H47.417C47.7618 3.57533 48.0999 3.67839 48.4297 3.88284C48.7612 4.08729 49.006 4.38814 49.1642 4.7854L53.6747 17.4961H53.8529C53.8796 16.8478 54.0178 16.1148 54.271 15.2954L57.2907 6.15504L61.3448 17.4961H61.523C61.5496 16.8611 61.6945 16.1281 61.9594 15.2954L65.0307 5.5284L64.0864 5.10953L64.0897 5.10787Z" fill="white"/>
<path d="M18.7568 21.3704C18.6319 21.3704 18.5003 21.3737 18.357 21.3821C18.0539 21.3987 17.8274 21.4369 17.6791 21.4968C17.5309 21.5583 17.4076 21.663 17.311 21.8126C17.2228 21.9505 17.1545 22.1367 17.1078 22.3727L17.0396 22.3661L17.0928 21.2773H21.0936L21.1469 22.3661L21.0786 22.3727C21.0253 22.0985 20.9421 21.8924 20.8288 21.7511C20.7155 21.6098 20.5506 21.51 20.3341 21.4485C20.1509 21.3954 19.8411 21.3688 19.403 21.3688V24.379C19.403 24.5801 19.4147 24.728 19.4364 24.8261C19.458 24.9242 19.5013 25.004 19.5613 25.0671C19.6162 25.1236 19.6795 25.1652 19.7495 25.1901C19.8194 25.2167 19.911 25.2317 20.0226 25.2367V25.3048H18.1322V25.2367C18.2471 25.2317 18.3387 25.2151 18.4087 25.1901C18.4786 25.1652 18.5419 25.1236 18.5969 25.0671C18.6585 25.004 18.7002 24.9242 18.7218 24.8278C18.7451 24.7314 18.7551 24.5818 18.7551 24.379V21.3688L18.7568 21.3704Z" fill="white"/>
<path d="M22.5856 23.1537H24.6859V22.2063C24.6859 22.0035 24.6743 21.8539 24.6526 21.7575C24.6293 21.6611 24.5876 21.5813 24.5277 21.5182C24.4727 21.4616 24.4094 21.4201 24.3395 21.3952C24.2695 21.3702 24.1779 21.3536 24.063 21.3486V21.2805H25.9534V21.3486C25.8402 21.3536 25.7502 21.3702 25.6803 21.3952C25.6103 21.4201 25.547 21.4616 25.4921 21.5182C25.4304 21.5813 25.3888 21.6611 25.3671 21.7592C25.3455 21.8572 25.3338 22.0052 25.3338 22.2063V24.3821C25.3338 24.5832 25.3455 24.7312 25.3671 24.8276C25.3905 24.924 25.4321 25.0054 25.4921 25.0686C25.547 25.1234 25.6103 25.165 25.6803 25.1916C25.7502 25.2182 25.8418 25.2348 25.9534 25.2398V25.3079H24.063V25.2398C24.1779 25.2348 24.2695 25.2182 24.3395 25.1916C24.4094 25.165 24.4727 25.1234 24.5277 25.0686C24.5893 25.0054 24.631 24.9256 24.6526 24.8292C24.6759 24.7328 24.6859 24.5832 24.6859 24.3804V23.2917H22.5856V24.3804C22.5856 24.5816 22.5973 24.7295 22.6189 24.8276C22.6422 24.9256 22.6839 25.0054 22.7438 25.0686C22.7971 25.1234 22.8588 25.165 22.9287 25.1916C22.9987 25.2182 23.0903 25.2348 23.2052 25.2398V25.3079H21.3164V25.2398C21.4313 25.2348 21.5229 25.2182 21.5929 25.1916C21.6629 25.165 21.7245 25.1234 21.7778 25.0686C21.8411 25.0054 21.8827 24.9256 21.9044 24.8292C21.926 24.7328 21.9377 24.5832 21.9377 24.3804V22.2046C21.9377 22.0019 21.926 21.8523 21.9044 21.7559C21.8827 21.6594 21.8411 21.5797 21.7778 21.5165C21.7245 21.46 21.6629 21.4184 21.5912 21.3935C21.5196 21.3686 21.428 21.3519 21.3164 21.347V21.2788H23.2052V21.347C23.0936 21.3519 23.002 21.3686 22.932 21.3935C22.8621 21.4184 22.7988 21.46 22.7438 21.5165C22.6822 21.5797 22.6406 21.6594 22.6189 21.7575C22.5956 21.8556 22.5856 22.0035 22.5856 22.2046V23.1521V23.1537Z" fill="white"/>
<path d="M29.4248 21.2788L29.4748 22.2528L29.4065 22.2562C29.3815 22.0916 29.3382 21.9537 29.2799 21.8456C29.22 21.7376 29.135 21.6412 29.0234 21.5597C28.9302 21.4916 28.8219 21.4417 28.6953 21.4134C28.5687 21.3852 28.4022 21.3702 28.1923 21.3702H27.5144V23.1405H27.6926C27.8725 23.1405 28.0074 23.1288 28.0974 23.1055C28.1873 23.0823 28.2622 23.0391 28.3189 22.9792C28.3738 22.9227 28.4155 22.8546 28.4421 22.7764C28.4688 22.6983 28.4904 22.5836 28.5088 22.4324L28.577 22.4357L28.5654 24.0181H28.4971C28.4788 23.8668 28.4538 23.7455 28.4188 23.6524C28.3838 23.5593 28.3355 23.4812 28.2756 23.4164C28.2156 23.3532 28.139 23.3067 28.0441 23.2784C27.9491 23.2485 27.8292 23.2335 27.6843 23.2335H27.5161V23.91C27.5161 24.1793 27.5227 24.3755 27.536 24.4985C27.5494 24.6215 27.576 24.7245 27.616 24.8076C27.6826 24.9489 27.7842 25.0536 27.9225 25.1184C28.059 25.1849 28.2406 25.2165 28.4654 25.2165C28.702 25.2165 28.9002 25.1866 29.0601 25.1268C29.22 25.0669 29.3499 24.9738 29.4498 24.8475C29.5214 24.7627 29.5781 24.6663 29.623 24.5583C29.668 24.4502 29.708 24.3073 29.7463 24.1311L29.8146 24.1344L29.7763 25.3096H26.2485V25.2414C26.3601 25.2365 26.4517 25.2198 26.5217 25.1949C26.5916 25.17 26.6549 25.1284 26.7099 25.0702C26.7715 25.0071 26.8132 24.9273 26.8348 24.8292C26.8565 24.7312 26.8681 24.5832 26.8681 24.3821V22.2063C26.8681 22.0052 26.8565 21.8572 26.8348 21.7592C26.8115 21.6611 26.7699 21.5813 26.7099 21.5182C26.6566 21.4616 26.595 21.4201 26.525 21.3935C26.4551 21.3669 26.3635 21.3519 26.2485 21.347V21.2788H29.4282H29.4248Z" fill="white"/>
<path d="M31.2866 21.2789H33.1471V21.3471C32.9739 21.3471 32.8556 21.3604 32.7923 21.3853C32.739 21.4086 32.6957 21.4468 32.6624 21.5C32.6291 21.5532 32.6124 21.613 32.6124 21.6795C32.6124 21.7626 32.6441 21.8756 32.7074 22.0219L32.784 22.2047L33.7034 24.447L34.3447 22.5139C34.4279 22.2662 34.4696 22.0817 34.4696 21.9587C34.4696 21.869 34.4529 21.7792 34.4213 21.6945C34.3896 21.6097 34.3463 21.5399 34.293 21.4867C34.2414 21.4352 34.1831 21.3986 34.1165 21.377C34.0499 21.3554 33.9666 21.3437 33.8633 21.3437V21.2756H35.7654V21.3437C35.6488 21.3437 35.5639 21.3471 35.5123 21.3554C35.4606 21.3637 35.4106 21.3803 35.3657 21.4052C35.3057 21.4401 35.2591 21.4917 35.2224 21.5565C35.1858 21.623 35.1675 21.6945 35.1675 21.7709C35.1675 21.8424 35.1958 21.9654 35.2508 22.1399L35.9786 24.4803L36.7914 22.4873C36.918 22.1831 36.9813 21.9471 36.9813 21.7792C36.9813 21.6113 36.923 21.48 36.8064 21.4069C36.7348 21.3637 36.6282 21.3421 36.4833 21.3421V21.2739H37.8524V21.3421C37.7208 21.3554 37.6209 21.3803 37.5526 21.4169C37.4843 21.4534 37.4177 21.5199 37.3494 21.6163C37.2511 21.7543 37.1279 22.0036 36.9796 22.3627L35.7638 25.3031H35.6422L34.5895 22.1599L33.5219 25.3031H33.3886L32.0661 22.1283L31.9778 21.9122C31.9162 21.7659 31.8646 21.6612 31.8246 21.5964C31.783 21.5316 31.733 21.48 31.673 21.4435C31.6264 21.4119 31.5748 21.3886 31.5198 21.3753C31.4648 21.362 31.3866 21.3504 31.2866 21.3421V21.2739V21.2789Z" fill="white"/>
<path d="M39.1652 23.1537H41.2655V22.2063C41.2655 22.0035 41.2538 21.8539 41.2322 21.7575C41.2089 21.6611 41.1672 21.5813 41.1073 21.5182C41.0523 21.4616 40.989 21.4201 40.9191 21.3952C40.8491 21.3702 40.7575 21.3536 40.6426 21.3486V21.2805H42.533V21.3486C42.4198 21.3536 42.3298 21.3702 42.2599 21.3952C42.1899 21.4201 42.1266 21.4616 42.0717 21.5182C42.01 21.5813 41.9684 21.6611 41.9467 21.7592C41.9234 21.8572 41.9134 22.0052 41.9134 22.2063V24.3821C41.9134 24.5832 41.9251 24.7312 41.9467 24.8276C41.9701 24.924 42.0117 25.0054 42.0717 25.0686C42.1266 25.1234 42.1899 25.165 42.2599 25.1916C42.3298 25.2182 42.4214 25.2348 42.533 25.2398V25.3079H40.6426V25.2398C40.7575 25.2348 40.8491 25.2182 40.9191 25.1916C40.989 25.165 41.0523 25.1234 41.1073 25.0686C41.1689 25.0054 41.2105 24.9256 41.2322 24.8292C41.2555 24.7328 41.2655 24.5832 41.2655 24.3804V23.2917H39.1652V24.3804C39.1652 24.5816 39.1768 24.7295 39.1985 24.8276C39.2218 24.9256 39.2635 25.0054 39.3234 25.0686C39.3767 25.1234 39.4383 25.165 39.5083 25.1916C39.5783 25.2182 39.6699 25.2348 39.7848 25.2398V25.3079H37.896V25.2398C38.0109 25.2348 38.1025 25.2182 38.1725 25.1916C38.2424 25.165 38.3041 25.1234 38.3574 25.0686C38.4207 25.0054 38.4623 24.9256 38.484 24.8292C38.5056 24.7328 38.5173 24.5832 38.5173 24.3804V22.2046C38.5173 22.0019 38.5056 21.8523 38.484 21.7559C38.4623 21.6594 38.4207 21.5797 38.3574 21.5165C38.3041 21.46 38.2424 21.4184 38.1708 21.3935C38.0992 21.3686 38.0076 21.3519 37.896 21.347V21.2788H39.7848V21.347C39.6732 21.3519 39.5816 21.3686 39.5116 21.3935C39.4417 21.4184 39.3784 21.46 39.3234 21.5165C39.2618 21.5797 39.2201 21.6594 39.1985 21.7575C39.1752 21.8556 39.1652 22.0035 39.1652 22.2046V23.1521V23.1537Z" fill="white"/>
<path d="M44.7129 21.2788V21.347C44.6013 21.3536 44.5097 21.3686 44.4398 21.3935C44.3698 21.4184 44.3065 21.46 44.2516 21.5182C44.1749 21.5963 44.1266 21.706 44.11 21.8456C44.0983 21.9503 44.0917 22.07 44.0917 22.2063V24.3821C44.0917 24.545 44.1 24.6746 44.115 24.7694C44.13 24.8641 44.1566 24.9389 44.1916 24.9971C44.2432 25.0752 44.3082 25.1351 44.3898 25.1733C44.4714 25.2115 44.578 25.2348 44.7113 25.2431V25.3113H42.8208V25.2431C42.9357 25.2381 43.0273 25.2215 43.0973 25.1949C43.1672 25.1683 43.2289 25.1268 43.2822 25.0719C43.3455 25.0087 43.3871 24.929 43.4088 24.8326C43.4304 24.7361 43.4421 24.5865 43.4421 24.3838V22.208C43.4421 22.0052 43.4304 21.8556 43.4088 21.7592C43.3871 21.6628 43.3438 21.583 43.2822 21.5198C43.2289 21.4633 43.1672 21.4218 43.0956 21.3952C43.024 21.3702 42.9324 21.3536 42.8208 21.3486V21.2805H44.7113L44.7129 21.2788Z" fill="white"/>
<path d="M46.6005 21.3704C46.4756 21.3704 46.344 21.3737 46.2008 21.3821C45.8977 21.3987 45.6711 21.4369 45.5229 21.4968C45.3747 21.5583 45.2514 21.663 45.1548 21.8126C45.0665 21.9505 44.9982 22.1367 44.9516 22.3727L44.8833 22.3661L44.9366 21.2773H48.9374L48.9907 22.3661L48.9224 22.3727C48.8691 22.0985 48.7858 21.8924 48.6725 21.7511C48.5593 21.6098 48.3944 21.51 48.1779 21.4485C47.9946 21.3954 47.6848 21.3688 47.2468 21.3688V24.379C47.2468 24.5801 47.2584 24.728 47.2801 24.8261C47.3034 24.9242 47.3451 25.004 47.405 25.0671C47.46 25.1236 47.5233 25.1652 47.5932 25.1901C47.6632 25.2167 47.7548 25.2317 47.8664 25.2367V25.3048H45.9759V25.2367C46.0909 25.2317 46.1825 25.2151 46.2524 25.1901C46.3224 25.1652 46.3857 25.1236 46.4406 25.0671C46.5023 25.004 46.5439 24.9242 46.5656 24.8278C46.5889 24.7314 46.5989 24.5818 46.5989 24.379V21.3688L46.6005 21.3704Z" fill="white"/>
<path d="M52.3418 21.2788L52.3918 22.2528L52.3235 22.2562C52.2985 22.0916 52.2552 21.9537 52.1969 21.8456C52.137 21.7376 52.052 21.6412 51.9404 21.5597C51.8471 21.4916 51.7389 21.4417 51.6123 21.4134C51.4857 21.3852 51.3191 21.3702 51.1093 21.3702H50.4314V23.1405H50.6096C50.7895 23.1405 50.9244 23.1288 51.0143 23.1055C51.1043 23.0823 51.1792 23.0391 51.2359 22.9792C51.2908 22.9227 51.3325 22.8546 51.3591 22.7764C51.3858 22.6983 51.4074 22.5836 51.4257 22.4324L51.494 22.4357L51.4824 24.0181H51.4141C51.3958 23.8668 51.3708 23.7455 51.3358 23.6524C51.3008 23.5593 51.2525 23.4812 51.1926 23.4164C51.1326 23.3532 51.056 23.3067 50.961 23.2784C50.8661 23.2485 50.7462 23.2335 50.6013 23.2335H50.433V23.91C50.433 24.1793 50.4397 24.3755 50.453 24.4985C50.4664 24.6215 50.493 24.7245 50.533 24.8076C50.5996 24.9489 50.7012 25.0536 50.8395 25.1184C50.976 25.1849 51.1576 25.2165 51.3824 25.2165C51.619 25.2165 51.8172 25.1866 51.9771 25.1268C52.137 25.0669 52.2669 24.9738 52.3668 24.8475C52.4384 24.7627 52.4951 24.6663 52.54 24.5583C52.585 24.4502 52.625 24.3073 52.6633 24.1311L52.7316 24.1344L52.6933 25.3096H49.1655V25.2414C49.2771 25.2365 49.3687 25.2198 49.4387 25.1949C49.5086 25.17 49.5719 25.1284 49.6269 25.0702C49.6885 25.0071 49.7302 24.9273 49.7518 24.8292C49.7751 24.7312 49.7851 24.5832 49.7851 24.3821V22.2063C49.7851 22.0052 49.7735 21.8572 49.7518 21.7592C49.7285 21.6611 49.6869 21.5813 49.6269 21.5182C49.5736 21.4616 49.512 21.4201 49.442 21.3935C49.3721 21.3669 49.2805 21.3519 49.1655 21.347V21.2788H52.3452H52.3418Z" fill="white"/>
<path d="M56.0458 21.3704C55.9209 21.3704 55.7893 21.3737 55.6461 21.3821C55.343 21.3987 55.1164 21.4369 54.9682 21.4968C54.82 21.5583 54.6967 21.663 54.6001 21.8126C54.5118 21.9505 54.4435 22.1367 54.3969 22.3727L54.3286 22.3661L54.3819 21.2773H58.3827L58.436 22.3661L58.3677 22.3727C58.3144 22.0985 58.2311 21.8924 58.1179 21.7511C58.0046 21.6098 57.8397 21.51 57.6232 21.4485C57.44 21.3954 57.1302 21.3688 56.6921 21.3688V24.379C56.6921 24.5801 56.7038 24.728 56.7254 24.8261C56.7471 24.9242 56.7904 25.004 56.8503 25.0671C56.9053 25.1236 56.9686 25.1652 57.0385 25.1901C57.1085 25.2167 57.2001 25.2317 57.3117 25.2367V25.3048H55.4212V25.2367C55.5362 25.2317 55.6278 25.2151 55.6977 25.1901C55.7677 25.1652 55.831 25.1236 55.886 25.0671C55.9476 25.004 55.9892 24.9242 56.0109 24.8278C56.0342 24.7314 56.0442 24.5818 56.0442 24.379V21.3688L56.0458 21.3704Z" fill="white"/>
<path d="M61.7871 21.2788L61.8371 22.2528L61.7688 22.2562C61.7438 22.0916 61.7005 21.9537 61.6422 21.8456C61.5823 21.7376 61.4973 21.6412 61.3857 21.5597C61.2925 21.4916 61.1842 21.4417 61.0576 21.4134C60.931 21.3852 60.7645 21.3702 60.5546 21.3702H59.8767V23.1405H60.0549C60.2348 23.1405 60.3697 23.1288 60.4597 23.1055C60.5496 23.0823 60.6246 23.0391 60.6812 22.9792C60.7361 22.9227 60.7778 22.8546 60.8044 22.7764C60.8311 22.6983 60.8527 22.5836 60.8711 22.4324L60.9393 22.4357L60.9277 24.0181H60.8594C60.8411 23.8668 60.8161 23.7455 60.7811 23.6524C60.7461 23.5593 60.6978 23.4812 60.6379 23.4164C60.5779 23.3532 60.5013 23.3067 60.4064 23.2784C60.3114 23.2485 60.1915 23.2335 60.0466 23.2335H59.8784V23.91C59.8784 24.1793 59.885 24.3755 59.8983 24.4985C59.9117 24.6215 59.9383 24.7245 59.9783 24.8076C60.0449 24.9489 60.1465 25.0536 60.2848 25.1184C60.4213 25.1849 60.6029 25.2165 60.8278 25.2165C61.0643 25.2165 61.2625 25.1866 61.4224 25.1268C61.5823 25.0669 61.7122 24.9738 61.8121 24.8475C61.8837 24.7627 61.9404 24.6663 61.9853 24.5583C62.0303 24.4502 62.0703 24.3073 62.1086 24.1311L62.1769 24.1344L62.1386 25.3096H58.6108V25.2414C58.7224 25.2365 58.814 25.2198 58.884 25.1949C58.954 25.17 59.0172 25.1284 59.0722 25.0702C59.1338 25.0071 59.1755 24.9273 59.1971 24.8292C59.2205 24.7312 59.2304 24.5832 59.2304 24.3821V22.2063C59.2304 22.0052 59.2188 21.8572 59.1971 21.7592C59.1738 21.6611 59.1322 21.5813 59.0722 21.5182C59.0189 21.4616 58.9573 21.4201 58.8873 21.3935C58.8174 21.3686 58.7258 21.3519 58.6108 21.347V21.2788H61.7905H61.7871Z" fill="white"/>
<path d="M66.4981 25.3081H64.556V25.24C64.7309 25.2234 64.8542 25.1951 64.9224 25.1519C65.0457 25.0754 65.1057 24.969 65.1057 24.8327C65.1057 24.7513 65.079 24.6433 65.0224 24.5086L64.9724 24.384L64.6893 23.6875H63.3884L63.2352 24.0947L63.1619 24.2776C63.0736 24.4937 63.0287 24.6649 63.0287 24.7879C63.0287 24.861 63.0453 24.9292 63.077 24.9907C63.1103 25.0538 63.1536 25.1053 63.2085 25.1436C63.2852 25.1968 63.3834 25.2283 63.505 25.2383V25.3065H62.1792V25.2383C62.2841 25.2317 62.3757 25.2067 62.454 25.1619C62.5323 25.117 62.6089 25.0438 62.6855 24.9441C62.7488 24.8643 62.8105 24.7596 62.8704 24.6333C62.9304 24.507 63.0103 24.3158 63.1086 24.0615L64.1912 21.2773H64.3595L65.6453 24.379C65.7419 24.6133 65.8185 24.7796 65.8752 24.881C65.9335 24.9807 65.9951 25.0571 66.0617 25.1087C66.1084 25.1436 66.1633 25.1718 66.2249 25.1901C66.2866 25.2084 66.3782 25.225 66.4998 25.2383V25.3065L66.4981 25.3081ZM64.641 23.5662L64.0197 22.037L63.4334 23.5662H64.6393H64.641Z" fill="white"/>
<path d="M67.8505 23.2535L69.1014 22.0135C69.2246 21.8922 69.3029 21.809 69.3329 21.7642C69.3629 21.7193 69.3796 21.6711 69.3796 21.6179C69.3796 21.5215 69.3329 21.4484 69.238 21.4001C69.188 21.3769 69.1064 21.3586 68.9898 21.347V21.2788H70.264V21.347C70.1774 21.3553 70.1058 21.3686 70.0475 21.3902C69.9892 21.4101 69.9259 21.445 69.8576 21.4949C69.781 21.5497 69.6477 21.6678 69.4612 21.8456L68.5034 22.7631L69.8676 24.4985L70.0358 24.7145C70.1607 24.8675 70.289 24.9888 70.4222 25.0752C70.5038 25.1284 70.5738 25.1667 70.6354 25.1883C70.697 25.2115 70.7737 25.2282 70.8669 25.2398V25.3079H68.9115V25.2398C69.0598 25.2282 69.1664 25.2032 69.2313 25.1666C69.2963 25.1301 69.3296 25.0736 69.3296 25.0021C69.3296 24.924 69.2896 24.8226 69.208 24.7012C69.168 24.6414 69.0947 24.54 68.9865 24.3937C68.8782 24.2475 68.7866 24.1294 68.7116 24.0397L68.0454 23.2169L67.8539 23.4064V24.3838C67.8539 24.5849 67.8655 24.7328 67.8872 24.8309C67.9088 24.929 67.9521 25.0087 68.0121 25.0719C68.0654 25.1268 68.127 25.1683 68.197 25.1949C68.2669 25.2215 68.3585 25.2381 68.4735 25.2431V25.3113H66.583V25.2431C66.6979 25.2365 66.7895 25.2215 66.8595 25.1949C66.9295 25.1683 66.9911 25.1284 67.0444 25.0719C67.1077 25.0087 67.1493 24.929 67.1726 24.8326C67.1943 24.7361 67.2043 24.5865 67.2043 24.3838V22.208C67.2043 22.0052 67.1926 21.8556 67.1726 21.7592C67.151 21.6628 67.1077 21.583 67.0444 21.5198C66.9911 21.4633 66.9295 21.4218 66.8578 21.3952C66.7862 21.3702 66.6946 21.3536 66.583 21.3486V21.2805H68.4735V21.3486C68.3602 21.3553 68.2703 21.3702 68.2003 21.3952C68.1303 21.4218 68.0671 21.4616 68.0121 21.5198C67.9505 21.583 67.9088 21.6628 67.8872 21.7608C67.8639 21.8589 67.8539 22.0068 67.8539 22.208V23.2551L67.8505 23.2535Z" fill="white"/>
<path d="M76.0219 21.2587L76.0569 22.5785H75.9886C75.9669 22.522 75.9503 22.4787 75.9386 22.4488C75.8703 22.2593 75.8137 22.1197 75.7704 22.0266C75.6938 21.8621 75.5822 21.7091 75.4356 21.5728C75.3257 21.4681 75.2107 21.3933 75.0925 21.3451C74.9742 21.2986 74.841 21.2737 74.6927 21.2737C74.4695 21.2737 74.2763 21.3219 74.1131 21.4183C73.9682 21.503 73.835 21.6244 73.7117 21.7823C73.5868 21.9402 73.4852 22.1214 73.4069 22.3242C73.2936 22.61 73.2387 22.9342 73.2387 23.2982C73.2387 23.6074 73.277 23.8849 73.3536 24.1343C73.4302 24.3819 73.5435 24.5897 73.6917 24.7576C73.9632 25.0684 74.3246 25.2247 74.7744 25.2247C74.9992 25.2247 75.2007 25.1864 75.3806 25.1083C75.5605 25.0302 75.6988 24.9205 75.797 24.7792C75.912 24.6163 75.9936 24.3952 76.0452 24.1176L76.1135 24.1293C76.0769 24.4401 75.9919 24.6878 75.8587 24.8706C75.7321 25.0451 75.5588 25.1798 75.3373 25.2712C75.1158 25.3643 74.8593 25.4092 74.5662 25.4092C74.2947 25.4092 74.0332 25.3693 73.785 25.2878C73.3886 25.1582 73.0788 24.9238 72.8572 24.5831C72.6341 24.244 72.5225 23.8384 72.5225 23.368C72.5225 23.0073 72.5874 22.6765 72.7173 22.3724C72.8473 22.0682 73.0288 21.8238 73.262 21.6393C73.4419 21.498 73.6551 21.385 73.9049 21.3019C74.1547 21.2188 74.4046 21.1772 74.6544 21.1772C74.9043 21.1772 75.1458 21.2221 75.4123 21.3135L75.6538 21.3933C75.7021 21.4116 75.7421 21.4199 75.7787 21.4199C75.8287 21.4199 75.8687 21.4 75.9003 21.3584C75.9136 21.3385 75.9303 21.3069 75.9503 21.2604H76.0219V21.2587Z" fill="white"/>
<path d="M76.578 23.32C76.578 22.9892 76.6497 22.6834 76.7912 22.4008C76.9328 22.1182 77.141 21.8722 77.4125 21.6611C77.6157 21.5049 77.8339 21.3869 78.0688 21.3021C78.3036 21.219 78.5401 21.1758 78.7783 21.1758C79.0814 21.1758 79.3763 21.2423 79.6594 21.3752C79.9426 21.5082 80.1924 21.696 80.4039 21.9387C80.7504 22.3327 80.9236 22.7798 80.9236 23.2818C80.9236 23.5344 80.8786 23.7771 80.787 24.0115C80.6971 24.2458 80.5638 24.4586 80.3906 24.6531C80.1774 24.8924 79.9259 25.0786 79.6344 25.2116C79.3429 25.3429 79.0398 25.4094 78.7217 25.4094C78.4035 25.4094 78.1087 25.3462 77.8222 25.2182C77.5358 25.0902 77.2893 24.909 77.0827 24.6747C76.9195 24.4918 76.7929 24.2841 76.7063 24.0497C76.618 23.817 76.5747 23.5743 76.5747 23.3217M77.2926 23.3649C77.2926 23.9367 77.4491 24.417 77.7606 24.8093C77.9005 24.9838 78.0488 25.1118 78.2053 25.1916C78.3619 25.2714 78.5435 25.3113 78.7483 25.3113C78.9532 25.3113 79.1381 25.2714 79.2946 25.1933C79.4512 25.1152 79.6011 24.9872 79.7427 24.8093C80.0542 24.4154 80.2107 23.93 80.2107 23.3532C80.2107 23.0358 80.1674 22.7366 80.0825 22.454C79.9959 22.1714 79.8759 21.9321 79.7194 21.7343C79.5928 21.573 79.4529 21.455 79.298 21.3819C79.1431 21.3088 78.9599 21.2705 78.7483 21.2705C78.5368 21.2705 78.3586 21.3071 78.2053 21.3802C78.0521 21.4534 77.9105 21.5714 77.7806 21.7343C77.6257 21.9287 77.5041 22.1681 77.4208 22.4523C77.3359 22.7366 77.2942 23.0407 77.2942 23.3649" fill="white"/>
<path d="M86.4582 21.347C86.3466 21.3519 86.255 21.3686 86.1884 21.3918C86.1201 21.4168 86.0585 21.4567 86.0002 21.5148C85.9569 21.5564 85.9235 21.6013 85.9019 21.6528C85.8802 21.7027 85.8653 21.7658 85.8569 21.8423C85.8436 21.9453 85.8369 22.065 85.8369 22.2046V24.3804C85.8369 24.5832 85.8486 24.7345 85.8719 24.8326C85.8952 24.9306 85.9385 25.0104 85.9985 25.0686C86.1068 25.1733 86.26 25.2298 86.4565 25.2398V25.3079H84.5678V25.2398C84.6827 25.2348 84.7743 25.2182 84.8442 25.1916C84.9142 25.165 84.9775 25.1234 85.0325 25.0686C85.0941 25.0054 85.1357 24.9256 85.1574 24.8276C85.1807 24.7295 85.1907 24.5816 85.1907 24.3804V21.7426L83.6667 25.3079H83.605L82.091 21.7957V24.3804C82.091 24.5832 82.1027 24.7328 82.126 24.8292C82.1476 24.9256 82.1909 25.0054 82.2509 25.0686C82.3059 25.1251 82.3692 25.1667 82.4391 25.1932C82.5091 25.2182 82.6007 25.2348 82.7123 25.2398V25.3079H81.3498V25.2398C81.4631 25.2348 81.553 25.2182 81.623 25.1932C81.6929 25.1683 81.7562 25.1268 81.8112 25.0686C81.8728 25.0054 81.9144 24.9256 81.9361 24.8276C81.9594 24.7295 81.9694 24.5816 81.9694 24.3804V22.2046C81.9694 22.1149 81.9661 22.0285 81.9611 21.9487C81.9511 21.8024 81.9278 21.696 81.8928 21.6295C81.8428 21.5364 81.7762 21.4683 81.6896 21.4251C81.603 21.3802 81.4897 21.3553 81.3481 21.347V21.2788H82.6307L83.9115 24.4336L85.239 21.2788H86.4549V21.347H86.4582Z" fill="white"/>
<path d="M88.0209 23.3218V24.3806C88.0209 24.5818 88.0325 24.7297 88.0542 24.8278C88.0758 24.9258 88.1191 25.0056 88.1791 25.0688C88.2324 25.1236 88.294 25.1652 88.364 25.1918C88.4339 25.2184 88.5255 25.235 88.6405 25.24V25.3081H86.75V25.24C86.8649 25.235 86.9565 25.2184 87.0265 25.1918C87.0964 25.1652 87.1581 25.1236 87.2114 25.0688C87.2747 25.0056 87.3163 24.9258 87.3396 24.8294C87.3613 24.733 87.3713 24.5834 87.3713 24.3806V22.2048C87.3713 22.0353 87.3646 21.9056 87.3496 21.8142C87.3346 21.7228 87.3096 21.648 87.2747 21.5915C87.223 21.5134 87.1581 21.4552 87.0798 21.4153C86.9998 21.3771 86.8982 21.3538 86.7717 21.3455H86.7517V21.2773H88.5355C88.847 21.2773 89.0768 21.2923 89.2251 21.3239C89.3733 21.3555 89.5082 21.4186 89.6298 21.5134C89.9096 21.7261 90.0496 22.0087 90.0496 22.3627C90.0496 22.7168 89.908 22.9861 89.6232 23.1539C89.4749 23.2404 89.2967 23.2919 89.0852 23.3102C89.0186 23.3168 88.857 23.3185 88.6005 23.3185H88.0209V23.3218ZM88.0209 23.2271H88.3107C88.5055 23.2271 88.6571 23.2121 88.762 23.1839C88.867 23.1556 88.9619 23.1024 89.0452 23.026C89.2384 22.8514 89.335 22.6171 89.335 22.3262C89.335 22.1649 89.3067 22.017 89.2501 21.8824C89.1934 21.7477 89.1135 21.638 89.0086 21.5533C88.8886 21.4535 88.7454 21.3937 88.5788 21.3754C88.5339 21.3721 88.4306 21.3688 88.269 21.3688H88.0209V23.2254V23.2271Z" fill="white"/>
<path d="M94.3702 25.3081H92.4281V25.24C92.603 25.2234 92.7262 25.1951 92.7945 25.1519C92.9161 25.0754 92.9777 24.969 92.9777 24.8327C92.9777 24.7513 92.9494 24.6433 92.8945 24.5086L92.8445 24.384L92.5613 23.6875H91.2605L91.1073 24.0947L91.034 24.2776C90.9457 24.4937 90.9007 24.6649 90.9007 24.7879C90.9007 24.861 90.9174 24.9292 90.949 24.9907C90.9807 25.0538 91.0256 25.1053 91.0806 25.1436C91.1572 25.1968 91.2555 25.2283 91.3754 25.2383V25.3065H90.0513V25.2383C90.1562 25.2317 90.2478 25.2067 90.3261 25.1619C90.4044 25.117 90.481 25.0438 90.5576 24.9441C90.6209 24.8643 90.6825 24.7596 90.7425 24.6333C90.8025 24.507 90.8824 24.3158 90.9807 24.0615L92.0633 21.2773H92.2315L93.5174 24.379C93.614 24.6133 93.6906 24.7796 93.7472 24.881C93.8039 24.9807 93.8672 25.0571 93.9338 25.1087C93.9804 25.1436 94.0354 25.1718 94.097 25.1901C94.1586 25.2084 94.2502 25.225 94.3718 25.2383V25.3065L94.3702 25.3081ZM92.513 23.5662L91.8918 22.037L91.3055 23.5662H92.5114H92.513Z" fill="white"/>
<path d="M95.1948 21.8141V24.3822C95.1948 24.585 95.2065 24.7346 95.2298 24.831C95.2514 24.9274 95.2947 25.0072 95.3547 25.0703C95.4097 25.1269 95.473 25.1684 95.5429 25.195C95.6129 25.2199 95.7045 25.2366 95.8161 25.2415V25.3097H94.4536V25.2415C94.5669 25.2366 94.6568 25.2199 94.7268 25.195C94.7967 25.1701 94.86 25.1285 94.915 25.0703C94.9766 25.0072 95.0183 24.9274 95.0399 24.8293C95.0632 24.7313 95.0732 24.5833 95.0732 24.3822V22.2047C95.0732 22.0053 95.0616 21.8573 95.0399 21.7609C95.0166 21.6629 94.9749 21.5831 94.915 21.5199C94.8617 21.4634 94.8001 21.4219 94.7301 21.3969C94.6601 21.372 94.5685 21.3554 94.4536 21.3504V21.2822H95.5929L97.9947 24.3406V22.2097C97.9947 22.0069 97.983 21.8573 97.9614 21.7609C97.938 21.6645 97.8964 21.5847 97.8364 21.5216C97.7815 21.4651 97.7182 21.4235 97.6482 21.3986C97.5783 21.3736 97.4867 21.357 97.3751 21.352V21.2839H98.7392V21.352C98.5427 21.352 98.3878 21.4086 98.2778 21.5232C98.2162 21.5864 98.1746 21.6662 98.1529 21.7643C98.1313 21.8623 98.1196 22.0103 98.1196 22.2081V25.313H97.9864L95.1998 21.8191L95.1948 21.8141Z" fill="white"/>
<path d="M99.9912 25.3079V25.2398C100.104 25.2348 100.196 25.2182 100.266 25.1932C100.336 25.1683 100.399 25.1268 100.456 25.0686C100.517 25.0054 100.559 24.9256 100.579 24.8292C100.601 24.7328 100.612 24.5832 100.612 24.3804L100.616 23.8053C100.616 23.7222 100.599 23.6308 100.566 23.5311C100.529 23.4147 100.451 23.2684 100.334 23.0939L99.5681 21.9453L99.4315 21.7392C99.3316 21.5896 99.2317 21.4866 99.135 21.4317C99.0851 21.4018 99.0368 21.3819 98.9868 21.3702C98.9368 21.3586 98.8686 21.3503 98.7803 21.347V21.2788H100.709V21.347C100.546 21.3569 100.441 21.3719 100.396 21.3918C100.286 21.4384 100.231 21.5248 100.231 21.6478C100.231 21.6927 100.243 21.7442 100.268 21.8007C100.293 21.8572 100.333 21.9304 100.388 22.0168L101.189 23.2684L101.875 22.1997L101.952 22.0783C102.025 21.9636 102.062 21.8523 102.062 21.7426C102.062 21.6162 102.022 21.5198 101.94 21.45C101.858 21.3802 101.745 21.347 101.6 21.347V21.2788H102.961V21.347C102.858 21.3586 102.779 21.3769 102.724 21.3985C102.669 21.4201 102.613 21.4583 102.556 21.5099C102.421 21.6362 102.273 21.824 102.11 22.0733L101.435 23.1006C101.355 23.2219 101.305 23.3117 101.287 23.3698C101.269 23.428 101.26 23.5228 101.26 23.6591V24.3821C101.26 24.5932 101.27 24.7445 101.292 24.8359C101.312 24.9273 101.355 25.0054 101.417 25.0702C101.525 25.1849 101.68 25.2414 101.882 25.2414V25.3096H99.9912V25.3079Z" fill="white"/>
<mask id="mask0_5020_14286" style="mask-type:luminance" maskUnits="userSpaceOnUse" x="54" y="27" width="5" height="3">
<path d="M54.7063 28.2104C54.7063 28.2104 54.8445 29.2194 55.2126 29.1163C55.4275 29.0565 56.1503 28.4332 57.8026 28.8936C57.8026 28.8936 58.194 29.0066 58.6487 29.251V29.0316C58.5588 28.6492 58.4322 28.4963 58.1374 28.2686C58.0924 28.2304 57.7643 27.996 57.5461 27.9196C57.3262 27.8431 56.6883 27.7417 56.6817 27.7417C56.66 27.7417 56.6384 27.7417 56.6184 27.7417C55.7123 27.7417 55.0194 28.0758 54.7046 28.2121" fill="white"/>
</mask>
<g mask="url(#mask0_5020_14286)">
<path d="M57.6631 26.0368L54.0498 28.1187L55.6913 30.9559L59.3046 28.874L57.6631 26.0368Z" fill="url(#paint0_linear_5020_14286)"/>
</g>
<mask id="mask1_5020_14286" style="mask-type:luminance" maskUnits="userSpaceOnUse" x="62" y="29" width="4" height="5">
<path d="M63.6051 29.4587C63.3086 29.5119 62.8289 29.6814 62.9638 29.703C64.5395 29.954 64.6611 31.4167 64.1631 32.2279C63.7816 32.8512 63.1787 32.9277 63.1787 32.9277C64.243 33.3482 65.0308 32.8612 65.0308 32.8612L65.1274 32.8213C65.259 32.665 65.374 32.5437 65.4972 32.296C65.9986 31.3021 65.5372 30.2233 64.9675 29.7679C64.9675 29.7679 64.8993 29.7047 64.7793 29.6515L64.7693 29.6482C64.6061 29.6066 64.3829 29.4986 64.0765 29.457H63.6034L63.6051 29.4587Z" fill="white"/>
</mask>
<g mask="url(#mask1_5020_14286)">
<path d="M65.9987 29.4585H62.8291V33.348H65.9987V29.4585Z" fill="url(#paint1_linear_5020_14286)"/>
</g>
<mask id="mask2_5020_14286" style="mask-type:luminance" maskUnits="userSpaceOnUse" x="54" y="29" width="3" height="5">
<path d="M55.5223 29.7512L55.0659 29.939C55.0659 29.939 54.9193 29.9939 54.8877 30.0171C54.8544 30.0404 54.7678 30.1185 54.7361 30.1435C54.6495 30.2399 54.5745 30.3496 54.5013 30.4875C53.9999 31.4283 54.4796 32.3558 55.0193 32.7564C55.0193 32.7564 55.0975 32.8196 55.2175 32.8694L55.2275 32.8728C56.2335 33.3049 56.9164 32.8728 56.9164 32.8728C56.9164 32.8728 56.7532 32.8545 56.6432 32.8279C56.3734 32.7614 56.1802 32.5985 56.1802 32.5985C55.6239 32.1198 55.4057 31.3203 55.8487 30.4892C55.8904 30.4127 56.0653 30.1268 56.4367 29.8858C56.5033 29.8426 55.6439 29.7495 55.5323 29.7495C55.5206 29.7495 55.5173 29.7495 55.5239 29.7528" fill="white"/>
</mask>
<g mask="url(#mask2_5020_14286)">
<path d="M56.9145 29.7495H53.998V33.3049H56.9145V29.7495Z" fill="url(#paint2_linear_5020_14286)"/>
</g>
<mask id="mask3_5020_14286" style="mask-type:luminance" maskUnits="userSpaceOnUse" x="54" y="29" width="3" height="5">
<path d="M55.5223 29.7512L55.0659 29.939C55.0659 29.939 54.9193 29.9939 54.8877 30.0171C54.8544 30.0404 54.7678 30.1185 54.7361 30.1435C54.6495 30.2399 54.5745 30.3496 54.5013 30.4875C53.9999 31.4283 54.4796 32.3558 55.0193 32.7564C55.0193 32.7564 55.0975 32.8196 55.2175 32.8694L55.2275 32.8728C56.2335 33.3049 56.9164 32.8728 56.9164 32.8728C56.9164 32.8728 56.7532 32.8545 56.6432 32.8279C56.3734 32.7614 56.1802 32.5985 56.1802 32.5985C55.6239 32.1198 55.4057 31.3203 55.8487 30.4892C55.8904 30.4127 56.0653 30.1268 56.4367 29.8858C56.5033 29.8426 55.6439 29.7495 55.5323 29.7495C55.5206 29.7495 55.5173 29.7495 55.5239 29.7528" fill="white"/>
</mask>
<g mask="url(#mask3_5020_14286)">
<path d="M56.9145 29.7495H53.998V33.3049H56.9145V29.7495Z" fill="url(#paint3_linear_5020_14286)"/>
</g>
<mask id="mask4_5020_14286" style="mask-type:luminance" maskUnits="userSpaceOnUse" x="54" y="29" width="12" height="5">
<path d="M55.0575 29.8642C54.9043 29.9606 54.7344 30.1435 54.7344 30.1435C54.7344 30.1435 55.797 29.3407 57.4909 30.3995C57.4909 30.3995 60.4307 32.3675 61.1586 32.8096L61.2002 32.8346C61.3718 32.9343 61.635 33.0772 61.9164 33.1953C62.8692 33.5958 64.1567 33.5593 64.8862 33.034C65.1111 32.8761 65.2926 32.6284 65.2643 32.655C65.2193 32.6983 64.8379 32.9326 64.17 32.9143C63.6787 32.901 63.2206 32.8495 62.5077 32.4124L62.4528 32.3791C62.068 32.1514 61.7899 31.9603 61.6033 31.8206L61.5833 31.8057C60.6123 31.0294 58.7135 29.954 58.7135 29.954L58.6219 29.9075C58.4687 29.8277 58.2804 29.7396 58.0839 29.6615C57.6558 29.4903 57.1795 29.3955 56.7048 29.3955C56.1218 29.3955 55.5405 29.5401 55.0558 29.8642" fill="white"/>
</mask>
<g mask="url(#mask4_5020_14286)">
<path d="M58.559 24.2747L52.6851 32.0537L61.4697 38.6599L67.3437 30.8808L58.559 24.2747Z" fill="url(#paint4_linear_5020_14286)"/>
</g>
<mask id="mask5_5020_14286" style="mask-type:luminance" maskUnits="userSpaceOnUse" x="54" y="27" width="6" height="7">
<path d="M57.9521 28.3216C58.6783 28.9316 58.9082 29.8126 58.73 30.6985C58.4268 32.2028 57.071 32.9624 56.005 32.9774C55.6469 32.9824 55.2655 32.8776 54.9424 32.6981C54.9424 32.6981 55.2222 32.9541 55.4904 33.0937C55.8585 33.2832 56.3232 33.4644 57.0677 33.4677C58.1337 33.471 59.5511 32.6981 59.8492 31.1922C60.0891 29.9871 59.2846 28.9499 58.8932 28.5959C58.5517 28.285 57.9138 27.7947 56.7629 27.7465C56.7496 27.7465 56.7279 27.7448 56.6829 27.7432C56.6829 27.7432 57.4075 27.8662 57.9521 28.3233" fill="white"/>
</mask>
<g mask="url(#mask5_5020_14286)">
<path d="M55.9308 25.7156L52.6802 32.3667L59.1009 35.4919L62.3516 28.8408L55.9308 25.7156Z" fill="url(#paint5_linear_5020_14286)"/>
</g>
<mask id="mask6_5020_14286" style="mask-type:luminance" maskUnits="userSpaceOnUse" x="60" y="29" width="6" height="7">
<path d="M60.2907 30.9029C60.2907 30.9029 60.1008 31.3234 60.1092 32.1296L60.1158 35.1996C60.1158 35.1996 60.0892 36.0656 61.1901 35.9958V32.8277C61.1901 31.8536 61.2984 31.5927 61.2984 31.5927C61.7065 30.2264 63.0206 29.5416 64.0017 29.5515C64.4913 29.5565 64.8911 29.7759 65.1309 29.9189C65.1309 29.9189 64.3781 29.0495 62.929 29.0229C62.9174 29.0229 62.904 29.0229 62.8907 29.0229C61.9513 29.0229 60.7554 29.6629 60.2907 30.9029Z" fill="white"/>
</mask>
<g mask="url(#mask6_5020_14286)">
<path d="M65.1302 29.0229H60.0884V36.0656H65.1302V29.0229Z" fill="url(#paint6_linear_5020_14286)"/>
</g>
<mask id="mask7_5020_14286" style="mask-type:luminance" maskUnits="userSpaceOnUse" x="60" y="29" width="6" height="7">
<path d="M60.2907 30.9029C60.2907 30.9029 60.1008 31.3234 60.1092 32.1296L60.1158 35.1996C60.1158 35.1996 60.0892 36.0656 61.1901 35.9958V32.8277C61.1901 31.8536 61.2984 31.5927 61.2984 31.5927C61.7065 30.2264 63.0206 29.5416 64.0017 29.5515C64.4913 29.5565 64.8911 29.7759 65.1309 29.9189C65.1309 29.9189 64.3781 29.0495 62.929 29.0229C62.9174 29.0229 62.904 29.0229 62.8907 29.0229C61.9513 29.0229 60.7554 29.6629 60.2907 30.9029Z" fill="white"/>
</mask>
<g mask="url(#mask7_5020_14286)">
<path d="M61.0594 27.0414L57.3101 34.7129L64.1635 38.0487L67.9128 30.3772L61.0594 27.0414Z" fill="url(#paint7_linear_5020_14286)"/>
</g>
<path d="M51.7544 31.751H17V31.992H51.7544V31.751Z" fill="white"/>
<path d="M103 31.751H68.2021V31.992H103V31.751Z" fill="white"/>
<defs>
<linearGradient id="paint0_linear_5020_14286" x1="58.7507" y1="27.3255" x2="54.1936" y2="29.962" gradientUnits="userSpaceOnUse">
<stop stop-color="#643D91"/>
<stop offset="0.21" stop-color="#643D91"/>
<stop offset="0.25" stop-color="#6A4596"/>
<stop offset="0.31" stop-color="#7C5DA3"/>
<stop offset="0.39" stop-color="#9A84BA"/>
<stop offset="0.44" stop-color="#AFA0CA"/>
<stop offset="0.46" stop-color="#AA99C6"/>
<stop offset="0.56" stop-color="#937CB4"/>
<stop offset="0.65" stop-color="#8367A7"/>
<stop offset="0.74" stop-color="#795A9F"/>
<stop offset="0.83" stop-color="#76569D"/>
<stop offset="0.88" stop-color="#72519B"/>
<stop offset="1" stop-color="#704F9B"/>
</linearGradient>
<linearGradient id="paint1_linear_5020_14286" x1="64.4981" y1="29.4722" x2="64.4981" y2="33.1614" gradientUnits="userSpaceOnUse">
<stop stop-color="#704F9B"/>
<stop offset="0.1" stop-color="#74549E"/>
<stop offset="0.22" stop-color="#8165A8"/>
<stop offset="0.37" stop-color="#9781B8"/>
<stop offset="0.49" stop-color="#AFA0CA"/>
<stop offset="0.52" stop-color="#A593C2"/>
<stop offset="0.61" stop-color="#8D74B0"/>
<stop offset="0.69" stop-color="#7B5BA2"/>
<stop offset="0.78" stop-color="#6E4A98"/>
<stop offset="0.88" stop-color="#664092"/>
<stop offset="1" stop-color="#643D91"/>
</linearGradient>
<linearGradient id="paint2_linear_5020_14286" x1="54.2796" y1="31.4643" x2="56.8968" y2="31.4643" gradientUnits="userSpaceOnUse">
<stop stop-color="#704F9B"/>
<stop offset="0.1" stop-color="#74549E"/>
<stop offset="0.22" stop-color="#8165A8"/>
<stop offset="0.37" stop-color="#9681B8"/>
<stop offset="0.49" stop-color="#AFA0CA"/>
<stop offset="0.57" stop-color="#9A86BA"/>
<stop offset="0.67" stop-color="#886DAC"/>
<stop offset="0.76" stop-color="#7A5CA2"/>
<stop offset="0.87" stop-color="#72529C"/>
<stop offset="1" stop-color="#704F9B"/>
</linearGradient>
<linearGradient id="paint3_linear_5020_14286" x1="55.5456" y1="29.6053" x2="55.5456" y2="33.326" gradientUnits="userSpaceOnUse">
<stop stop-color="#643D91"/>
<stop offset="0.09" stop-color="#674293"/>
<stop offset="0.21" stop-color="#71529A"/>
<stop offset="0.23" stop-color="#75579D"/>
<stop offset="0.29" stop-color="#7A5EA1"/>
<stop offset="0.37" stop-color="#8B73AE"/>
<stop offset="0.47" stop-color="#A694C3"/>
<stop offset="0.49" stop-color="#AFA0CA"/>
<stop offset="0.51" stop-color="#AA99C6"/>
<stop offset="0.57" stop-color="#937CB4"/>
<stop offset="0.64" stop-color="#8367A7"/>
<stop offset="0.7" stop-color="#795A9F"/>
<stop offset="0.76" stop-color="#76569D"/>
<stop offset="0.83" stop-color="#72519B"/>
<stop offset="1" stop-color="#704F9B"/>
</linearGradient>
<linearGradient id="paint4_linear_5020_14286" x1="64.6702" y1="34.7626" x2="55.3491" y2="27.7242" gradientUnits="userSpaceOnUse">
<stop stop-color="#FCB830"/>
<stop offset="0.25" stop-color="#F99C34"/>
<stop offset="0.52" stop-color="#ED3727"/>
<stop offset="0.56" stop-color="#ED3F27"/>
<stop offset="0.62" stop-color="#F0562A"/>
<stop offset="0.7" stop-color="#F57C2E"/>
<stop offset="0.75" stop-color="#F89631"/>
<stop offset="1" stop-color="#FCB830"/>
</linearGradient>
<linearGradient id="paint5_linear_5020_14286" x1="59.0479" y1="27.0205" x2="55.54" y2="34.2276" gradientUnits="userSpaceOnUse">
<stop stop-color="#ED3727"/>
<stop offset="0.23" stop-color="#EF4925"/>
<stop offset="0.26" stop-color="#F36B28"/>
<stop offset="0.29" stop-color="#F6872B"/>
<stop offset="0.32" stop-color="#F99C2D"/>
<stop offset="0.36" stop-color="#FAAC2E"/>
<stop offset="0.4" stop-color="#FBB52F"/>
<stop offset="0.46" stop-color="#FCB830"/>
<stop offset="0.52" stop-color="#FAA52E"/>
<stop offset="0.66" stop-color="#F5772A"/>
<stop offset="0.81" stop-color="#EF3C25"/>
<stop offset="1" stop-color="#ED3727"/>
</linearGradient>
<linearGradient id="paint6_linear_5020_14286" x1="60.1186" y1="32.6091" x2="65.123" y2="32.6091" gradientUnits="userSpaceOnUse">
<stop stop-color="#ED3727"/>
<stop offset="0.28" stop-color="#EF4125"/>
<stop offset="0.34" stop-color="#F26228"/>
<stop offset="0.43" stop-color="#F7902C"/>
<stop offset="0.5" stop-color="#FAAD2F"/>
<stop offset="0.54" stop-color="#FCB830"/>
<stop offset="0.63" stop-color="#F78E2C"/>
<stop offset="0.81" stop-color="#EF3C25"/>
<stop offset="1" stop-color="#ED3727"/>
</linearGradient>
<linearGradient id="paint7_linear_5020_14286" x1="65.3143" y1="26.945" x2="60.375" y2="37.093" gradientUnits="userSpaceOnUse">
<stop stop-color="#ED3727"/>
<stop offset="0.28" stop-color="#EF4125"/>
<stop offset="0.34" stop-color="#F26228"/>
<stop offset="0.43" stop-color="#F7902C"/>
<stop offset="0.5" stop-color="#FAAD2F"/>
<stop offset="0.54" stop-color="#FCB830"/>
<stop offset="0.63" stop-color="#F78E2C"/>
<stop offset="0.81" stop-color="#EF3C25"/>
<stop offset="1" stop-color="#ED3727"/>
</linearGradient>
</defs>
</svg>
